<svg xmlns="http://www.w3.org/2000/svg" xmlns:xlink="http://www.w3.org/1999/xlink" width="500" zoomAndPan="magnify" viewBox="0 0 375 374.999991" height="500" preserveAspectRatio="xMidYMid meet" version="1.0"><defs><g/><clipPath id="f81bcdec2c"><path d="M 119 146.847656 L 161 146.847656 L 161 211.332031 L 119 211.332031 Z M 119 146.847656 " clip-rule="nonzero"/></clipPath></defs><rect x="-37.5" width="450" fill="#ffffff" y="-37.499999" height="449.999989" fill-opacity="1"/><rect x="-37.5" width="450" fill="#ffffff" y="-37.499999" height="449.999989" fill-opacity="1"/><g fill="#1b0000" fill-opacity="1"><g transform="translate(25.296213, 204.932451)"><g><path d="M 21.125 1.140625 C 18.34375 1.140625 15.898438 0.847656 13.796875 0.265625 C 11.691406 -0.304688 9.894531 -1.09375 8.40625 -2.09375 C 6.914062 -3.101562 5.703125 -4.25 4.765625 -5.53125 C 3.835938 -6.820312 3.15625 -8.195312 2.71875 -9.65625 C 2.28125 -11.113281 2.0625 -12.578125 2.0625 -14.046875 L 12.640625 -14.046875 C 12.640625 -12.160156 13.375 -10.632812 14.84375 -9.46875 C 16.3125 -8.3125 18.394531 -7.734375 21.09375 -7.734375 C 24.050781 -7.734375 26.164062 -8.164062 27.4375 -9.03125 C 28.71875 -9.90625 29.359375 -11.203125 29.359375 -12.921875 C 29.359375 -13.960938 29.007812 -14.828125 28.3125 -15.515625 C 27.613281 -16.203125 26.582031 -16.789062 25.21875 -17.28125 C 23.863281 -17.769531 22.207031 -18.238281 20.25 -18.6875 C 18.71875 -19.0625 17.15625 -19.492188 15.5625 -19.984375 C 13.976562 -20.472656 12.445312 -21.078125 10.96875 -21.796875 C 9.488281 -22.523438 8.160156 -23.398438 6.984375 -24.421875 C 5.816406 -25.453125 4.894531 -26.679688 4.21875 -28.109375 C 3.539062 -29.546875 3.203125 -31.222656 3.203125 -33.140625 C 3.203125 -35.785156 3.847656 -38.109375 5.140625 -40.109375 C 6.429688 -42.109375 8.367188 -43.675781 10.953125 -44.8125 C 13.546875 -45.945312 16.800781 -46.515625 20.71875 -46.515625 C 24.675781 -46.515625 27.972656 -45.925781 30.609375 -44.75 C 33.253906 -43.570312 35.234375 -41.914062 36.546875 -39.78125 C 37.859375 -37.644531 38.515625 -35.128906 38.515625 -32.234375 L 27.9375 -32.234375 C 27.9375 -33.078125 27.707031 -33.890625 27.25 -34.671875 C 26.789062 -35.453125 26.023438 -36.085938 24.953125 -36.578125 C 23.890625 -37.066406 22.4375 -37.3125 20.59375 -37.3125 C 18.71875 -37.3125 17.289062 -37.097656 16.3125 -36.671875 C 15.332031 -36.253906 14.664062 -35.722656 14.3125 -35.078125 C 13.957031 -34.429688 13.78125 -33.765625 13.78125 -33.078125 C 13.78125 -31.628906 14.582031 -30.488281 16.1875 -29.65625 C 17.789062 -28.820312 20.367188 -28.066406 23.921875 -27.390625 C 26.191406 -26.929688 28.304688 -26.328125 30.265625 -25.578125 C 32.222656 -24.828125 33.9375 -23.882812 35.40625 -22.75 C 36.875 -21.625 38.019531 -20.25 38.84375 -18.625 C 39.664062 -17 40.078125 -15.082031 40.078125 -12.875 C 40.078125 -9.851562 39.273438 -7.300781 37.671875 -5.21875 C 36.066406 -3.144531 33.847656 -1.566406 31.015625 -0.484375 C 28.179688 0.597656 24.882812 1.140625 21.125 1.140625 Z M 21.125 1.140625 "/></g></g></g><g fill="#1b0000" fill-opacity="1"><g transform="translate(74.076477, 204.932451)"><g><path d="M 24.453125 0 L 13.953125 0 L 13.953125 -35.96875 L 1.234375 -35.96875 L 1.234375 -45.390625 L 37.140625 -45.390625 L 37.140625 -35.96875 L 24.453125 -35.96875 Z M 24.453125 0 "/></g></g></g><g fill="#1b0000" fill-opacity="1"><g transform="translate(119.296235, 204.932451)"><g/></g></g><g fill="#1b0000" fill-opacity="1"><g transform="translate(142.549202, 204.932451)"><g/></g></g><g fill="#1b0000" fill-opacity="1"><g transform="translate(165.807837, 204.932451)"><g><path d="M 34.265625 0 L 4.640625 0 L 4.640625 -45.390625 L 15.21875 -45.390625 L 15.21875 -9.40625 L 34.265625 -9.40625 Z M 34.265625 0 "/></g></g></g><g fill="#1b0000" fill-opacity="1"><g transform="translate(208.247987, 204.932451)"><g><path d="M 43.71875 -45.390625 L 27.796875 -25.1875 L 45.78125 0 L 33.296875 0 L 20.890625 -17.59375 L 15.21875 -10.34375 L 15.21875 0 L 4.640625 0 L 4.640625 -45.390625 L 15.21875 -45.390625 L 15.21875 -24.359375 L 31.40625 -45.390625 Z M 43.71875 -45.390625 "/></g></g></g><g fill="#1b0000" fill-opacity="1"><g transform="translate(261.099272, 204.932451)"><g><path d="M 36.9375 0 L 4.640625 0 L 4.640625 -45.390625 L 36.640625 -45.390625 L 36.640625 -36 L 15.21875 -36 L 15.21875 -27.4375 L 33.609375 -27.4375 L 33.609375 -18.625 L 15.21875 -18.625 L 15.21875 -9.40625 L 36.9375 -9.40625 Z M 36.9375 0 "/></g></g></g><g fill="#1b0000" fill-opacity="1"><g transform="translate(306.842954, 204.932451)"><g><path d="M 15.21875 0 L 4.640625 0 L 4.640625 -45.390625 L 24.5625 -45.390625 C 26.96875 -45.390625 29.164062 -45.019531 31.15625 -44.28125 C 33.144531 -43.550781 34.875 -42.503906 36.34375 -41.140625 C 37.8125 -39.785156 38.945312 -38.171875 39.75 -36.296875 C 40.550781 -34.429688 40.953125 -32.363281 40.953125 -30.09375 C 40.953125 -28.050781 40.59375 -26.160156 39.875 -24.421875 C 39.164062 -22.691406 38.171875 -21.1875 36.890625 -19.90625 C 35.609375 -18.625 34.09375 -17.609375 32.34375 -16.859375 L 42.015625 0 L 29.90625 0 L 21.953125 -15.1875 L 15.21875 -15.1875 Z M 15.21875 -35.96875 L 15.21875 -24.03125 L 24.125 -24.03125 C 25.300781 -24.03125 26.359375 -24.289062 27.296875 -24.8125 C 28.234375 -25.332031 28.976562 -26.046875 29.53125 -26.953125 C 30.09375 -27.867188 30.375 -28.914062 30.375 -30.09375 C 30.375 -31.164062 30.09375 -32.144531 29.53125 -33.03125 C 28.976562 -33.925781 28.226562 -34.640625 27.28125 -35.171875 C 26.332031 -35.703125 25.28125 -35.96875 24.125 -35.96875 Z M 15.21875 -35.96875 "/></g></g></g><g clip-path="url(#f81bcdec2c)"><path fill="#e92026" d="M 140.460938 146.84375 C 140.277344 146.835938 140.082031 146.835938 139.890625 146.835938 C 139.699219 146.835938 139.507812 146.835938 139.316406 146.84375 C 124.160156 147.226562 114.796875 163.574219 121.839844 176.980469 L 127.257812 187.292969 L 139.890625 211.332031 L 144.332031 202.875 C 142.519531 199.503906 140.695312 196.136719 138.878906 192.765625 C 136.097656 187.617188 133.320312 182.46875 130.542969 177.328125 C 129.132812 174.714844 127.785156 172.046875 127.417969 169.058594 C 126.527344 161.851562 132.6875 155.429688 139.839844 155.402344 C 146.855469 155.375 152.546875 161.042969 152.546875 168.039062 C 152.546875 175.019531 146.878906 180.675781 139.890625 180.675781 C 139.660156 180.675781 139.429688 180.667969 139.203125 180.65625 L 147.625 196.613281 L 152.523438 187.292969 L 157.9375 176.980469 C 164.984375 163.574219 155.621094 147.226562 140.460938 146.84375 " fill-opacity="1" fill-rule="nonzero"/></g></svg>